<svg xmlns="http://www.w3.org/2000/svg" viewBox="0 0 400 300">
  <defs>
    <linearGradient id="breatheSky" x1="0" y1="0" x2="0" y2="1">
      <stop offset="0%" stop-color="#C8E8F4"/>
      <stop offset="100%" stop-color="#E8F6EE"/>
    </linearGradient>
  </defs>
  <rect width="400" height="300" fill="url(#breatheSky)"/>
  <ellipse cx="200" cy="295" rx="220" ry="28" fill="#A8D4A0" opacity="0.7"/>
  <rect x="0" y="278" width="400" height="22" fill="#A8D4A0"/>
  <ellipse cx="60" cy="220" rx="38" ry="55" fill="#6AAA72" opacity="0.55"/>
  <rect x="54" y="238" width="12" height="40" fill="#5A8A62" opacity="0.55"/>
  <ellipse cx="340" cy="215" rx="42" ry="60" fill="#6AAA72" opacity="0.55"/>
  <rect x="334" y="235" width="12" height="43" fill="#5A8A62" opacity="0.55"/>
  <ellipse cx="130" cy="235" rx="28" ry="42" fill="#7ABB82" opacity="0.45"/>
  <rect x="124" y="250" width="10" height="28" fill="#6AAA72" opacity="0.45"/>
  <ellipse cx="285" cy="240" rx="30" ry="40" fill="#7ABB82" opacity="0.45"/>
  <rect x="279" y="255" width="10" height="25" fill="#6AAA72" opacity="0.45"/>
  <circle cx="200" cy="192" r="64" fill="none" stroke="#A8D0E0" stroke-width="2" opacity="0.50"/>
  <circle cx="200" cy="192" r="80" fill="none" stroke="#A8D0E0" stroke-width="1.5" opacity="0.32"/>
  <circle cx="200" cy="192" r="96" fill="none" stroke="#A8D0E0" stroke-width="1" opacity="0.18"/>
  <path d="M182 250 Q179 260 181 265 Q183 269 188 268 Q193 267 191 258 Q190 250 185 250 Z" fill="#7BA8B8" stroke="#2D5566" stroke-width="1.5"/>
  <path d="M218 250 Q221 260 219 265 Q217 269 212 268 Q207 267 209 258 Q210 250 215 250 Z" fill="#7BA8B8" stroke="#2D5566" stroke-width="1.5"/>
  <path d="M152 165 Q140 154 134 165 Q128 176 140 181 Q150 185 156 173 Z" fill="#7BA8B8" stroke="#2D5566" stroke-width="1.5"/>
  <path d="M248 165 Q260 154 266 165 Q272 176 260 181 Q250 185 244 173 Z" fill="#7BA8B8" stroke="#2D5566" stroke-width="1.5"/>
  <ellipse cx="200" cy="205" rx="52" ry="49" fill="#7BA8B8"/>
  <ellipse cx="207" cy="214" rx="38" ry="35" fill="#5A8A9A" opacity="0.35"/>
  <ellipse cx="200" cy="205" rx="52" ry="49" fill="none" stroke="#2D5566" stroke-width="1.5"/>
  <ellipse cx="178" cy="181" rx="17" ry="12" fill="white" opacity="0.35" transform="rotate(-45 178 181)"/>
  <path d="M185 200 Q192 195 199 200" fill="none" stroke="#1A3A4A" stroke-width="2.2" stroke-linecap="round"/>
  <path d="M201 200 Q208 195 215 200" fill="none" stroke="#1A3A4A" stroke-width="2.2" stroke-linecap="round"/>
  <ellipse cx="200" cy="214" rx="5" ry="4.5" fill="#1A3A4A"/>
  <ellipse cx="200" cy="214" rx="3" ry="2.8" fill="#0E2030"/>
  <circle cx="200" cy="138" r="3" fill="#A8D0E0" opacity="0.60"/>
  <circle cx="192" cy="128" r="2" fill="#A8D0E0" opacity="0.40"/>
  <circle cx="208" cy="128" r="2" fill="#A8D0E0" opacity="0.40"/>
</svg>
