<svg xmlns="http://www.w3.org/2000/svg" viewBox="0 0 200 200">
  <ellipse cx="100" cy="178" rx="36" ry="7" fill="#5A8A9A" opacity="0.30"/>
  <path d="M82 160 Q79 171 81 177 Q83 181 88 180 Q93 179 92 170 Q91 162 86 160 Z" fill="#7BA8B8" stroke="#2D5566" stroke-width="1.5"/>
  <path d="M118 160 Q121 171 119 177 Q117 181 112 180 Q107 179 108 170 Q109 162 114 160 Z" fill="#7BA8B8" stroke="#2D5566" stroke-width="1.5"/>
  <circle cx="100" cy="134" r="12" fill="none" stroke="#A8D0E0" stroke-width="2" opacity="0.65"/>
  <circle cx="100" cy="134" r="22" fill="none" stroke="#A8D0E0" stroke-width="1.5" opacity="0.40"/>
  <circle cx="100" cy="134" r="32" fill="none" stroke="#A8D0E0" stroke-width="1" opacity="0.22"/>
  <path d="M41 112 Q30 108 27 120 Q24 131 36 133 Q47 134 49 122 Z" fill="#7BA8B8" stroke="#2D5566" stroke-width="1.5"/>
  <path d="M159 112 Q170 108 173 120 Q176 131 164 133 Q153 134 151 122 Z" fill="#7BA8B8" stroke="#2D5566" stroke-width="1.5"/>
  <ellipse cx="100" cy="108" rx="62" ry="58" fill="#7BA8B8"/>
  <ellipse cx="108" cy="118" rx="46" ry="42" fill="#5A8A9A" opacity="0.35"/>
  <ellipse cx="100" cy="108" rx="62" ry="58" fill="none" stroke="#2D5566" stroke-width="1.5"/>
  <ellipse cx="72" cy="76" rx="20" ry="14" fill="white" opacity="0.35" transform="rotate(-45 72 76)"/>
  <ellipse cx="84" cy="104" rx="7" ry="8" fill="#1A3A4A"/>
  <circle cx="87" cy="101" r="2.5" fill="white"/>
  <ellipse cx="116" cy="104" rx="7" ry="8" fill="#1A3A4A"/>
  <circle cx="119" cy="101" r="2.5" fill="white"/>
  <ellipse cx="100" cy="120" rx="6" ry="5" fill="#1A3A4A"/>
  <ellipse cx="100" cy="120" rx="3.5" ry="3" fill="#0E2030"/>
  <circle cx="100" cy="62" r="3.5" fill="#A8D0E0" opacity="0.55"/>
  <circle cx="90" cy="52" r="2.5" fill="#A8D0E0" opacity="0.38"/>
  <circle cx="110" cy="52" r="2.5" fill="#A8D0E0" opacity="0.38"/>
  <circle cx="100" cy="42" r="2" fill="#A8D0E0" opacity="0.25"/>
</svg>
