<svg xmlns="http://www.w3.org/2000/svg" viewBox="0 0 200 200">
  <ellipse cx="100" cy="184" rx="44" ry="7" fill="#5A8A9A" opacity="0.30"/>
  <path d="M70 152 Q55 156 52 165 Q50 173 60 175 Q70 177 80 168 Q88 160 86 152 Z" fill="#7BA8B8" stroke="#2D5566" stroke-width="1.5"/>
  <path d="M130 152 Q145 156 148 165 Q150 173 140 175 Q130 177 120 168 Q112 160 114 152 Z" fill="#7BA8B8" stroke="#2D5566" stroke-width="1.5"/>
  <path d="M44 122 Q33 122 32 133 Q31 143 42 143 Q52 143 54 133 Z" fill="#7BA8B8" stroke="#2D5566" stroke-width="1.5"/>
  <path d="M156 122 Q167 122 168 133 Q169 143 158 143 Q148 143 146 133 Z" fill="#7BA8B8" stroke="#2D5566" stroke-width="1.5"/>
  <ellipse cx="100" cy="108" rx="62" ry="58" fill="#7BA8B8"/>
  <ellipse cx="108" cy="118" rx="46" ry="42" fill="#5A8A9A" opacity="0.35"/>
  <ellipse cx="100" cy="108" rx="62" ry="58" fill="none" stroke="#2D5566" stroke-width="1.5"/>
  <ellipse cx="72" cy="76" rx="20" ry="14" fill="white" opacity="0.35" transform="rotate(-45 72 76)"/>
  <path d="M77 104 Q84 98 91 104" fill="none" stroke="#1A3A4A" stroke-width="2.5" stroke-linecap="round"/>
  <path d="M109 104 Q116 98 123 104" fill="none" stroke="#1A3A4A" stroke-width="2.5" stroke-linecap="round"/>
  <path d="M89 119 Q100 128 111 119" fill="none" stroke="#1A3A4A" stroke-width="2" stroke-linecap="round"/>
  <circle cx="100" cy="184" r="5" fill="#6A98A8" opacity="0.50"/>
  <circle cx="84" cy="184" r="3" fill="#6A98A8" opacity="0.35"/>
  <circle cx="116" cy="184" r="3" fill="#6A98A8" opacity="0.35"/>
</svg>
