<?xml version="1.0" encoding="UTF-8"?>
<svg xmlns="http://www.w3.org/2000/svg" viewBox="0 0 100 100">
  <ellipse cx="50" cy="89" rx="18" ry="3.5" fill="#7AAFBB" opacity="0.2"/>
  <path d="M39 72 Q36 80 38 85 Q40 89 44 88 Q48 87 46 80 Q46 73 43 72 Z" fill="#7AAFBB"/>
  <path d="M61 72 Q64 80 62 85 Q60 89 56 88 Q52 87 54 80 Q54 73 57 72 Z" fill="#7AAFBB"/>
  <path d="M24 52 Q16 50 14 58 Q12 65 20 66 Q27 67 29 60 Z" fill="#7AAFBB"/>
  <path d="M76 52 Q84 50 86 58 Q88 65 80 66 Q73 67 71 60 Z" fill="#7AAFBB"/>
  <ellipse cx="50" cy="47" rx="28" ry="30" fill="#99C9D7"/>
  <ellipse cx="42" cy="38" rx="9" ry="7" fill="#C5E4EC" opacity="0.55"/>
  <!-- Breathing circles radiating from mouth area -->
  <circle cx="50" cy="66" r="6" fill="none" stroke="#C5E4EC" stroke-width="1.5" opacity="0.7"/>
  <circle cx="50" cy="66" r="11" fill="none" stroke="#C5E4EC" stroke-width="1" opacity="0.45"/>
  <circle cx="50" cy="66" r="16" fill="none" stroke="#C5E4EC" stroke-width="0.8" opacity="0.25"/>
  <!-- Calm eyes, focused -->
  <circle cx="41" cy="43" r="4.5" fill="#2D4A52"/>
  <circle cx="43" cy="41" r="1.5" fill="white"/>
  <circle cx="59" cy="43" r="4.5" fill="#2D4A52"/>
  <circle cx="61" cy="41" r="1.5" fill="white"/>
  <!-- Mouth in "O" — breathing out -->
  <ellipse cx="50" cy="56" rx="4" ry="3.5" fill="#2D4A52"/>
  <ellipse cx="50" cy="56" rx="2.5" ry="2.2" fill="#5C3030"/>
  <!-- Small breath particles -->
  <circle cx="50" cy="28" r="2" fill="#C5E4EC" opacity="0.6"/>
  <circle cx="44" cy="23" r="1.5" fill="#C5E4EC" opacity="0.4"/>
  <circle cx="56" cy="23" r="1.5" fill="#C5E4EC" opacity="0.4"/>
  <circle cx="50" cy="17" r="1" fill="#C5E4EC" opacity="0.3"/>
</svg>
