<?xml version="1.0" encoding="UTF-8"?>
<svg xmlns="http://www.w3.org/2000/svg" viewBox="0 0 100 100">
  <ellipse cx="50" cy="89" rx="18" ry="3.5" fill="#7AAFBB" opacity="0.2"/>
  <!-- Legs relaxed/splayed for sleeping -->
  <path d="M38 73 Q34 80 36 84 Q38 88 43 87 Q47 86 45 79 Q44 73 40 73 Z" fill="#7AAFBB"/>
  <path d="M62 73 Q66 80 64 84 Q62 88 57 87 Q53 86 55 79 Q56 73 60 73 Z" fill="#7AAFBB"/>
  <!-- Arms relaxed at sides -->
  <path d="M25 56 Q17 55 15 63 Q13 70 21 70 Q28 70 29 63 Z" fill="#7AAFBB"/>
  <path d="M75 56 Q83 55 85 63 Q87 70 79 70 Q72 70 71 63 Z" fill="#7AAFBB"/>
  <ellipse cx="50" cy="47" rx="28" ry="30" fill="#99C9D7"/>
  <ellipse cx="42" cy="38" rx="9" ry="7" fill="#C5E4EC" opacity="0.55"/>
  <!-- Sleeping closed eyes (straight gentle lines) -->
  <path d="M36 43 Q41 42 46 43" stroke="#2D4A52" stroke-width="2.2" fill="none" stroke-linecap="round"/>
  <path d="M54 43 Q59 42 64 43" stroke="#2D4A52" stroke-width="2.2" fill="none" stroke-linecap="round"/>
  <!-- Peaceful sleeping mouth -->
  <path d="M44 55 Q50 58 56 55" stroke="#2D4A52" stroke-width="1.8" fill="none" stroke-linecap="round" opacity="0.7"/>
  <!-- Zzz -->
  <path d="M63 26 L70 26 L63 33 L70 33" stroke="#7AAFBB" stroke-width="1.6" fill="none" stroke-linecap="round" stroke-linejoin="round"/>
  <path d="M67 19 L73 19 L67 25 L73 25" stroke="#7AAFBB" stroke-width="1.3" fill="none" stroke-linecap="round" stroke-linejoin="round"/>
  <path d="M71 13 L75 13 L71 18 L75 18" stroke="#7AAFBB" stroke-width="1" fill="none" stroke-linecap="round" stroke-linejoin="round"/>
  <!-- Small stars near face -->
  <circle cx="28" cy="30" r="1.5" fill="#FFD166" opacity="0.7"/>
  <circle cx="23" cy="38" r="1" fill="#FFD166" opacity="0.5"/>
  <circle cx="30" cy="22" r="1" fill="#FFD166" opacity="0.5"/>
</svg>
