<svg xmlns="http://www.w3.org/2000/svg" viewBox="0 0 200 200">
  <ellipse cx="100" cy="178" rx="36" ry="7" fill="#5A8A9A" opacity="0.30"/>
  <path d="M80 158 Q76 169 78 175 Q80 179 85 178 Q90 177 89 168 Q88 160 83 158 Z" fill="#7BA8B8" stroke="#2D5566" stroke-width="1.5"/>
  <path d="M120 158 Q124 169 122 175 Q120 179 115 178 Q110 177 111 168 Q112 160 117 158 Z" fill="#7BA8B8" stroke="#2D5566" stroke-width="1.5"/>
  <path d="M41 116 Q30 114 28 126 Q26 138 38 138 Q49 137 50 126 Z" fill="#7BA8B8" stroke="#2D5566" stroke-width="1.5"/>
  <path d="M159 116 Q170 114 172 126 Q174 138 162 138 Q151 137 150 126 Z" fill="#7BA8B8" stroke="#2D5566" stroke-width="1.5"/>
  <ellipse cx="100" cy="108" rx="62" ry="58" fill="#7BA8B8"/>
  <ellipse cx="108" cy="118" rx="46" ry="42" fill="#5A8A9A" opacity="0.35"/>
  <ellipse cx="100" cy="108" rx="62" ry="58" fill="none" stroke="#2D5566" stroke-width="1.5"/>
  <ellipse cx="72" cy="76" rx="20" ry="14" fill="white" opacity="0.35" transform="rotate(-45 72 76)"/>
  <path d="M74 104 Q84 99 94 104" fill="none" stroke="#1A3A4A" stroke-width="2.5" stroke-linecap="round"/>
  <path d="M106 104 Q116 99 126 104" fill="none" stroke="#1A3A4A" stroke-width="2.5" stroke-linecap="round"/>
  <path d="M91 119 Q100 124 109 119" fill="none" stroke="#1A3A4A" stroke-width="1.8" stroke-linecap="round" opacity="0.7"/>
  <path d="M126 52 L140 52 L126 66 L140 66" stroke="#6A98A8" stroke-width="2.5" fill="none" stroke-linecap="round" stroke-linejoin="round"/>
  <path d="M134 38 L146 38 L134 50 L146 50" stroke="#6A98A8" stroke-width="2" fill="none" stroke-linecap="round" stroke-linejoin="round"/>
  <path d="M141 27 L150 27 L141 37 L150 37" stroke="#6A98A8" stroke-width="1.5" fill="none" stroke-linecap="round" stroke-linejoin="round"/>
  <circle cx="56" cy="60" r="3" fill="#FFD166" opacity="0.70"/>
  <circle cx="46" cy="76" r="2" fill="#FFD166" opacity="0.50"/>
  <circle cx="60" cy="44" r="2" fill="#FFD166" opacity="0.50"/>
</svg>
