<svg xmlns="http://www.w3.org/2000/svg" viewBox="0 0 200 200">
  <ellipse cx="100" cy="184" rx="40" ry="7" fill="#5A8A9A" opacity="0.30"/>
  <path d="M82 160 Q79 171 81 177 Q83 181 88 180 Q93 179 92 170 Q91 162 86 160 Z" fill="#7BA8B8" stroke="#2D5566" stroke-width="1.5"/>
  <path d="M118 160 Q121 171 119 177 Q117 181 112 180 Q107 179 108 170 Q109 162 114 160 Z" fill="#7BA8B8" stroke="#2D5566" stroke-width="1.5"/>
  <path d="M44 118 Q35 118 34 130 Q33 141 44 141 Q54 141 56 130 Z" fill="#7BA8B8" stroke="#2D5566" stroke-width="1.5"/>
  <path d="M156 118 Q165 118 166 130 Q167 141 156 141 Q146 141 144 130 Z" fill="#7BA8B8" stroke="#2D5566" stroke-width="1.5"/>
  <path d="M52 144 Q100 138 148 144 L148 170 Q100 164 52 170 Z" fill="#F5F0E8" stroke="#D0C4A8" stroke-width="1"/>
  <path d="M52 144 Q100 138 100 144 L100 170 Q100 164 52 170 Z" fill="#EDE5D5"/>
  <line x1="100" y1="138" x2="100" y2="170" stroke="#D0C8B8" stroke-width="1.5"/>
  <line x1="60" y1="150" x2="94" y2="150" stroke="#B8B0A0" stroke-width="1" opacity="0.7"/>
  <line x1="60" y1="156" x2="94" y2="156" stroke="#B8B0A0" stroke-width="1" opacity="0.7"/>
  <line x1="60" y1="162" x2="88" y2="162" stroke="#B8B0A0" stroke-width="1" opacity="0.7"/>
  <line x1="106" y1="150" x2="140" y2="150" stroke="#B8B0A0" stroke-width="1" opacity="0.7"/>
  <line x1="106" y1="156" x2="140" y2="156" stroke="#B8B0A0" stroke-width="1" opacity="0.7"/>
  <line x1="106" y1="162" x2="134" y2="162" stroke="#B8B0A0" stroke-width="1" opacity="0.7"/>
  <ellipse cx="100" cy="108" rx="62" ry="58" fill="#7BA8B8"/>
  <ellipse cx="108" cy="118" rx="46" ry="42" fill="#5A8A9A" opacity="0.35"/>
  <ellipse cx="100" cy="108" rx="62" ry="58" fill="none" stroke="#2D5566" stroke-width="1.5"/>
  <ellipse cx="72" cy="76" rx="20" ry="14" fill="white" opacity="0.35" transform="rotate(-45 72 76)"/>
  <ellipse cx="84" cy="106" rx="7" ry="8" fill="#1A3A4A"/>
  <circle cx="87" cy="104" r="2.5" fill="white"/>
  <ellipse cx="116" cy="106" rx="7" ry="8" fill="#1A3A4A"/>
  <circle cx="119" cy="104" r="2.5" fill="white"/>
  <path d="M91 120 Q100 127 109 120" fill="none" stroke="#1A3A4A" stroke-width="1.8" stroke-linecap="round"/>
</svg>
