<?xml version="1.0" encoding="UTF-8"?>
<svg xmlns="http://www.w3.org/2000/svg" viewBox="0 0 100 100">
  <ellipse cx="50" cy="92" rx="18" ry="3.5" fill="#7AAFBB" opacity="0.2"/>
  <path d="M39 72 Q36 80 38 85 Q40 89 44 88 Q48 87 46 80 Q46 73 43 72 Z" fill="#7AAFBB"/>
  <path d="M61 72 Q64 80 62 85 Q60 89 56 88 Q52 87 54 80 Q54 73 57 72 Z" fill="#7AAFBB"/>
  <!-- Left arm normal -->
  <path d="M24 52 Q16 50 14 58 Q12 65 20 66 Q27 67 29 60 Z" fill="#7AAFBB"/>
  <!-- Right arm extended downward (holding pen) -->
  <path d="M72 58 Q78 63 76 73 Q74 78 70 76 Q66 74 68 64 Q70 58 72 58 Z" fill="#7AAFBB"/>
  <ellipse cx="50" cy="47" rx="28" ry="30" fill="#99C9D7"/>
  <ellipse cx="42" cy="38" rx="9" ry="7" fill="#C5E4EC" opacity="0.55"/>
  <!-- Pencil held in right hand -->
  <rect x="66.5" y="74" width="3.5" height="14" rx="1.5" fill="#FFD166" transform="rotate(12 68.25 81)"/>
  <polygon points="64.5,86.5 68.5,86.5 66.5,91.5" fill="#F7C35F" transform="rotate(12 66.5 89)"/>
  <rect x="66.5" y="74" width="3.5" height="3" rx="1" fill="#C5A028" transform="rotate(12 68.25 75.5)"/>
  <!-- Ready-to-write calm face -->
  <path d="M37 43 Q41 38 45 43" stroke="#2D4A52" stroke-width="2.2" fill="none" stroke-linecap="round"/>
  <path d="M55 43 Q59 38 63 43" stroke="#2D4A52" stroke-width="2.2" fill="none" stroke-linecap="round"/>
  <path d="M43 55 Q50 61 57 55" stroke="#2D4A52" stroke-width="2" fill="none" stroke-linecap="round"/>
</svg>
