<?xml version="1.0" encoding="UTF-8"?>
<svg xmlns="http://www.w3.org/2000/svg" viewBox="0 0 100 100">
  <ellipse cx="50" cy="89" rx="18" ry="3.5" fill="#7AAFBB" opacity="0.2"/>
  <path d="M39 72 Q36 80 38 85 Q40 89 44 88 Q48 87 46 80 Q46 73 43 72 Z" fill="#7AAFBB"/>
  <path d="M61 72 Q64 80 62 85 Q60 89 56 88 Q52 87 54 80 Q54 73 57 72 Z" fill="#7AAFBB"/>
  <path d="M24 52 Q16 50 14 58 Q12 65 20 66 Q27 67 29 60 Z" fill="#7AAFBB"/>
  <path d="M76 52 Q84 50 86 58 Q88 65 80 66 Q73 67 71 60 Z" fill="#7AAFBB"/>
  <ellipse cx="50" cy="47" rx="28" ry="30" fill="#99C9D7"/>
  <ellipse cx="42" cy="38" rx="9" ry="7" fill="#C5E4EC" opacity="0.55"/>
  <!-- Eyes fully closed — gentle straight lines with subtle curve -->
  <path d="M36 43 Q41 42 46 43" stroke="#2D4A52" stroke-width="2.3" fill="none" stroke-linecap="round"/>
  <path d="M54 43 Q59 42 64 43" stroke="#2D4A52" stroke-width="2.3" fill="none" stroke-linecap="round"/>
  <!-- Gentle eyelash hints -->
  <path d="M36 43 Q35 41 34 40" stroke="#2D4A52" stroke-width="1" fill="none" stroke-linecap="round" opacity="0.5"/>
  <path d="M46 43 Q47 41 48 40" stroke="#2D4A52" stroke-width="1" fill="none" stroke-linecap="round" opacity="0.5"/>
  <path d="M54 43 Q53 41 52 40" stroke="#2D4A52" stroke-width="1" fill="none" stroke-linecap="round" opacity="0.5"/>
  <path d="M64 43 Q65 41 66 40" stroke="#2D4A52" stroke-width="1" fill="none" stroke-linecap="round" opacity="0.5"/>
  <!-- Peaceful soft smile -->
  <path d="M43 55 Q50 62 57 55" stroke="#2D4A52" stroke-width="2" fill="none" stroke-linecap="round"/>
  <!-- Soft glow aura -->
  <circle cx="50" cy="47" r="33" fill="none" stroke="#C5E4EC" stroke-width="1.5" opacity="0.3"/>
  <!-- Rosy soft cheeks -->
  <ellipse cx="34" cy="51" rx="4" ry="2.5" fill="#F4A0A0" opacity="0.35"/>
  <ellipse cx="66" cy="51" rx="4" ry="2.5" fill="#F4A0A0" opacity="0.35"/>
</svg>
