<?xml version="1.0" encoding="UTF-8"?>
<svg xmlns="http://www.w3.org/2000/svg" viewBox="0 0 100 100">
  <ellipse cx="50" cy="89" rx="18" ry="3.5" fill="#7AAFBB" opacity="0.2"/>
  <path d="M39 72 Q36 80 38 85 Q40 89 44 88 Q48 87 46 80 Q46 73 43 72 Z" fill="#7AAFBB"/>
  <path d="M61 72 Q64 80 62 85 Q60 89 56 88 Q52 87 54 80 Q54 73 57 72 Z" fill="#7AAFBB"/>
  <!-- Arms drooping slightly -->
  <path d="M24 55 Q16 55 14 63 Q12 70 20 70 Q27 70 29 63 Z" fill="#7AAFBB"/>
  <path d="M76 55 Q84 55 86 63 Q88 70 80 70 Q73 70 71 63 Z" fill="#7AAFBB"/>
  <ellipse cx="50" cy="47" rx="28" ry="30" fill="#99C9D7"/>
  <ellipse cx="42" cy="38" rx="9" ry="7" fill="#C5E4EC" opacity="0.55"/>
  <!-- Left eye — sad, slight droop -->
  <circle cx="41" cy="44" r="4.5" fill="#2D4A52"/>
  <circle cx="43" cy="42" r="1.5" fill="white"/>
  <!-- Right eye — sad, slight droop -->
  <circle cx="59" cy="44" r="4.5" fill="#2D4A52"/>
  <circle cx="61" cy="42" r="1.5" fill="white"/>
  <!-- Sad brows (inner ends lower) -->
  <path d="M36 38 Q41 37 45 39" stroke="#2D4A52" stroke-width="1.8" fill="none" stroke-linecap="round" opacity="0.7"/>
  <path d="M55 39 Q59 37 64 38" stroke="#2D4A52" stroke-width="1.8" fill="none" stroke-linecap="round" opacity="0.7"/>
  <!-- Frown -->
  <path d="M43 58 Q50 53 57 58" stroke="#2D4A52" stroke-width="2" fill="none" stroke-linecap="round"/>
  <!-- Tear drop left -->
  <path d="M38 51 Q36 54.5 38 57 Q40 54.5 38 51 Z" fill="#99C9D7" opacity="0.75"/>
</svg>
