<svg xmlns="http://www.w3.org/2000/svg" viewBox="0 0 200 200">
  <ellipse cx="100" cy="178" rx="36" ry="7" fill="#5A8A9A" opacity="0.30"/>
  <path d="M82 160 Q79 171 81 177 Q83 181 88 180 Q93 179 92 170 Q91 162 86 160 Z" fill="#7BA8B8" stroke="#2D5566" stroke-width="1.5"/>
  <path d="M118 160 Q121 171 119 177 Q117 181 112 180 Q107 179 108 170 Q109 162 114 160 Z" fill="#7BA8B8" stroke="#2D5566" stroke-width="1.5"/>
  <path d="M40 106 Q28 100 25 113 Q22 126 35 128 Q47 129 49 116 Z" fill="#7BA8B8" stroke="#2D5566" stroke-width="1.5"/>
  <path d="M160 106 Q172 100 175 113 Q178 126 165 128 Q153 129 151 116 Z" fill="#7BA8B8" stroke="#2D5566" stroke-width="1.5"/>
  <ellipse cx="100" cy="108" rx="62" ry="58" fill="#7BA8B8"/>
  <ellipse cx="108" cy="118" rx="46" ry="42" fill="#5A8A9A" opacity="0.35"/>
  <ellipse cx="100" cy="108" rx="62" ry="58" fill="none" stroke="#2D5566" stroke-width="1.5"/>
  <ellipse cx="72" cy="76" rx="20" ry="14" fill="white" opacity="0.35" transform="rotate(-45 72 76)"/>
  <path d="M76 90 Q84 85 92 89" fill="none" stroke="#2D5566" stroke-width="2.2" stroke-linecap="round"/>
  <path d="M108 89 Q116 85 124 90" fill="none" stroke="#2D5566" stroke-width="2.2" stroke-linecap="round"/>
  <ellipse cx="84" cy="104" rx="8" ry="9" fill="#1A3A4A"/>
  <circle cx="87" cy="101" r="2.8" fill="white"/>
  <ellipse cx="116" cy="104" rx="8" ry="9" fill="#1A3A4A"/>
  <circle cx="119" cy="101" r="2.8" fill="white"/>
  <path d="M87 120 Q93 116 100 120 Q107 124 113 120" fill="none" stroke="#1A3A4A" stroke-width="2" stroke-linecap="round"/>
  <path d="M130 78 Q133 71 129 68 Q125 71 128 78 Z" fill="#A8D0E0" stroke="#2D5566" stroke-width="1"/>
</svg>
