<svg xmlns="http://www.w3.org/2000/svg" viewBox="0 0 200 200">
  <ellipse cx="100" cy="178" rx="36" ry="7" fill="#5A8A9A" opacity="0.30"/>
  <path d="M82 160 Q79 171 81 177 Q83 181 88 180 Q93 179 92 170 Q91 162 86 160 Z" fill="#7BA8B8" stroke="#2D5566" stroke-width="1.5"/>
  <path d="M118 160 Q121 171 119 177 Q117 181 112 180 Q107 179 108 170 Q109 162 114 160 Z" fill="#7BA8B8" stroke="#2D5566" stroke-width="1.5"/>
  <path d="M42 88 Q30 78 23 90 Q17 101 30 107 Q42 112 48 99 Z" fill="#7BA8B8" stroke="#2D5566" stroke-width="1.5"/>
  <path d="M158 88 Q170 78 177 90 Q183 101 170 107 Q158 112 152 99 Z" fill="#7BA8B8" stroke="#2D5566" stroke-width="1.5"/>
  <ellipse cx="100" cy="108" rx="62" ry="58" fill="#7BA8B8"/>
  <ellipse cx="108" cy="118" rx="46" ry="42" fill="#5A8A9A" opacity="0.35"/>
  <ellipse cx="100" cy="108" rx="62" ry="58" fill="none" stroke="#2D5566" stroke-width="1.5"/>
  <ellipse cx="72" cy="76" rx="20" ry="14" fill="white" opacity="0.35" transform="rotate(-45 72 76)"/>
  <path d="M100 14 L103.6 25 L115 25 L106 31.6 L109.6 42 L100 35.6 L90.4 42 L94 31.6 L85 25 L96.4 25 Z" fill="#FFD166"/>
  <path d="M77 104 Q84 98 91 104" fill="none" stroke="#1A3A4A" stroke-width="2.5" stroke-linecap="round"/>
  <path d="M109 104 Q116 98 123 104" fill="none" stroke="#1A3A4A" stroke-width="2.5" stroke-linecap="round"/>
  <path d="M85 119 Q100 133 115 119" fill="none" stroke="#1A3A4A" stroke-width="2.5" stroke-linecap="round"/>
  <ellipse cx="70" cy="115" rx="10" ry="6" fill="#F4A0A0" opacity="0.25"/>
  <ellipse cx="130" cy="115" rx="10" ry="6" fill="#F4A0A0" opacity="0.25"/>
</svg>
