<svg xmlns="http://www.w3.org/2000/svg" viewBox="0 0 200 200">
  <ellipse cx="100" cy="178" rx="36" ry="7" fill="#5A8A9A" opacity="0.20"/>
  <path d="M82 160 Q79 171 81 177 Q83 181 88 180 Q93 179 92 170 Q91 162 86 160 Z" fill="#7BA8B8" stroke="#2D5566" stroke-width="1.5" opacity="0.80"/>
  <path d="M118 160 Q121 171 119 177 Q117 181 112 180 Q107 179 108 170 Q109 162 114 160 Z" fill="#7BA8B8" stroke="#2D5566" stroke-width="1.5" opacity="0.80"/>
  <path d="M41 112 Q30 108 27 120 Q24 131 36 133 Q47 134 49 122 Z" fill="#7BA8B8" stroke="#2D5566" stroke-width="1.5" opacity="0.80"/>
  <path d="M159 112 Q170 108 173 120 Q176 131 164 133 Q153 134 151 122 Z" fill="#7BA8B8" stroke="#2D5566" stroke-width="1.5" opacity="0.80"/>
  <ellipse cx="100" cy="108" rx="62" ry="58" fill="#7BA8B8" opacity="0.82"/>
  <ellipse cx="108" cy="118" rx="46" ry="42" fill="#5A8A9A" opacity="0.18"/>
  <ellipse cx="100" cy="108" rx="62" ry="58" fill="none" stroke="#2D5566" stroke-width="1.5" opacity="0.70"/>
  <ellipse cx="72" cy="76" rx="20" ry="14" fill="white" opacity="0.22" transform="rotate(-45 72 76)"/>
  <ellipse cx="84" cy="104" rx="5" ry="4" fill="#1A3A4A" opacity="0.50"/>
  <ellipse cx="116" cy="104" rx="5" ry="4" fill="#1A3A4A" opacity="0.50"/>
  <line x1="88" y1="120" x2="112" y2="120" stroke="#1A3A4A" stroke-width="2.2" stroke-linecap="round" opacity="0.50"/>
</svg>
