<?xml version="1.0" encoding="UTF-8"?>
<svg xmlns="http://www.w3.org/2000/svg" viewBox="0 0 100 100">
  <ellipse cx="50" cy="89" rx="18" ry="3.5" fill="#7AAFBB" opacity="0.2"/>
  <path d="M39 72 Q36 80 38 85 Q40 89 44 88 Q48 87 46 80 Q46 73 43 72 Z" fill="#7AAFBB"/>
  <path d="M61 72 Q64 80 62 85 Q60 89 56 88 Q52 87 54 80 Q54 73 57 72 Z" fill="#7AAFBB"/>
  <!-- Arms out wide, overwhelmed -->
  <path d="M22 50 Q14 46 12 54 Q10 62 19 63 Q26 64 29 57 Z" fill="#7AAFBB"/>
  <path d="M78 50 Q86 46 88 54 Q90 62 81 63 Q74 64 71 57 Z" fill="#7AAFBB"/>
  <ellipse cx="50" cy="47" rx="28" ry="30" fill="#99C9D7"/>
  <ellipse cx="42" cy="38" rx="9" ry="7" fill="#C5E4EC" opacity="0.55"/>
  <!-- Left eye — spiral (circle + inner spiral path) -->
  <circle cx="41" cy="43" r="6" fill="white" stroke="#2D4A52" stroke-width="1.5"/>
  <path d="M41 43 Q43.5 40.5 41 40 Q38.5 40 38.5 43 Q38.5 46 41 46 Q43.5 46 44 43.5" stroke="#2D4A52" stroke-width="1.3" fill="none" stroke-linecap="round"/>
  <!-- Right eye — spiral -->
  <circle cx="59" cy="43" r="6" fill="white" stroke="#2D4A52" stroke-width="1.5"/>
  <path d="M59 43 Q61.5 40.5 59 40 Q56.5 40 56.5 43 Q56.5 46 59 46 Q61.5 46 62 43.5" stroke="#2D4A52" stroke-width="1.3" fill="none" stroke-linecap="round"/>
  <!-- Open stressed mouth -->
  <path d="M43 57 Q50 63 57 57" stroke="#2D4A52" stroke-width="2" fill="#B8D8E0" stroke-linecap="round"/>
  <!-- Stress lines -->
  <path d="M68 28 L73 23" stroke="#7AAFBB" stroke-width="1.8" stroke-linecap="round" opacity="0.7"/>
  <path d="M71 32 L77 30" stroke="#7AAFBB" stroke-width="1.8" stroke-linecap="round" opacity="0.7"/>
  <path d="M27 28 L22 23" stroke="#7AAFBB" stroke-width="1.8" stroke-linecap="round" opacity="0.7"/>
  <path d="M29 32 L23 30" stroke="#7AAFBB" stroke-width="1.8" stroke-linecap="round" opacity="0.7"/>
</svg>
