<?xml version="1.0" encoding="UTF-8"?>
<svg xmlns="http://www.w3.org/2000/svg" viewBox="0 0 100 100">
  <ellipse cx="50" cy="89" rx="18" ry="3.5" fill="#7AAFBB" opacity="0.2"/>
  <path d="M39 72 Q36 80 38 85 Q40 89 44 88 Q48 87 46 80 Q46 73 43 72 Z" fill="#7AAFBB"/>
  <path d="M61 72 Q64 80 62 85 Q60 89 56 88 Q52 87 54 80 Q54 73 57 72 Z" fill="#7AAFBB"/>
  <path d="M24 52 Q16 50 14 58 Q12 65 20 66 Q27 67 29 60 Z" fill="#7AAFBB"/>
  <path d="M76 52 Q84 50 86 58 Q88 65 80 66 Q73 67 71 60 Z" fill="#7AAFBB"/>
  <ellipse cx="50" cy="47" rx="28" ry="30" fill="#99C9D7"/>
  <ellipse cx="42" cy="38" rx="9" ry="7" fill="#C5E4EC" opacity="0.55"/>
  <!-- Left eye — wide open -->
  <circle cx="41" cy="43" r="5.5" fill="#2D4A52"/>
  <circle cx="43" cy="41" r="1.8" fill="white"/>
  <!-- Right eye — wide open -->
  <circle cx="59" cy="43" r="5.5" fill="#2D4A52"/>
  <circle cx="61" cy="41" r="1.8" fill="white"/>
  <!-- Worried wavy mouth -->
  <path d="M43 57 Q46.5 54.5 50 57 Q53.5 59.5 57 57" stroke="#2D4A52" stroke-width="2" fill="none" stroke-linecap="round"/>
  <!-- Slight brow furrow -->
  <path d="M37 37 Q41 35.5 45 37" stroke="#2D4A52" stroke-width="1.5" fill="none" stroke-linecap="round" opacity="0.6"/>
  <path d="M55 37 Q59 35.5 63 37" stroke="#2D4A52" stroke-width="1.5" fill="none" stroke-linecap="round" opacity="0.6"/>
</svg>
