<svg xmlns="http://www.w3.org/2000/svg" viewBox="0 0 200 200">
  <ellipse cx="100" cy="178" rx="36" ry="7" fill="#5A8A9A" opacity="0.30"/>
  <path d="M82 160 Q79 171 81 177 Q83 181 88 180 Q93 179 92 170 Q91 162 86 160 Z" fill="#7BA8B8" stroke="#2D5566" stroke-width="1.5"/>
  <path d="M118 160 Q121 171 119 177 Q117 181 112 180 Q107 179 108 170 Q109 162 114 160 Z" fill="#7BA8B8" stroke="#2D5566" stroke-width="1.5"/>
  <path d="M39 100 Q26 92 22 105 Q18 118 32 121 Q44 123 48 109 Z" fill="#7BA8B8" stroke="#2D5566" stroke-width="1.5"/>
  <path d="M161 100 Q174 92 178 105 Q182 118 168 121 Q156 123 152 109 Z" fill="#7BA8B8" stroke="#2D5566" stroke-width="1.5"/>
  <ellipse cx="100" cy="108" rx="62" ry="58" fill="#7BA8B8"/>
  <ellipse cx="108" cy="118" rx="46" ry="42" fill="#5A8A9A" opacity="0.35"/>
  <ellipse cx="100" cy="108" rx="62" ry="58" fill="none" stroke="#2D5566" stroke-width="1.5"/>
  <ellipse cx="72" cy="76" rx="20" ry="14" fill="white" opacity="0.35" transform="rotate(-45 72 76)"/>
  <circle cx="84" cy="103" r="10" fill="white" stroke="#1A3A4A" stroke-width="1.8"/>
  <path d="M84 103 Q87 100 84 99 Q81 99 81 103 Q81 107 84 107 Q87 107 88 104" stroke="#1A3A4A" stroke-width="1.5" fill="none" stroke-linecap="round"/>
  <circle cx="116" cy="103" r="10" fill="white" stroke="#1A3A4A" stroke-width="1.8"/>
  <path d="M116 103 Q119 100 116 99 Q113 99 113 103 Q113 107 116 107 Q119 107 120 104" stroke="#1A3A4A" stroke-width="1.5" fill="none" stroke-linecap="round"/>
  <path d="M89 121 Q100 129 111 121" stroke="#1A3A4A" stroke-width="2.2" fill="#96C0CC" stroke-linecap="round"/>
  <path d="M136 56 L144 50" stroke="#6A98A8" stroke-width="2" stroke-linecap="round" opacity="0.7"/>
  <path d="M140 64 L149 62" stroke="#6A98A8" stroke-width="2" stroke-linecap="round" opacity="0.7"/>
  <path d="M64 56 L56 50" stroke="#6A98A8" stroke-width="2" stroke-linecap="round" opacity="0.7"/>
  <path d="M60 64 L51 62" stroke="#6A98A8" stroke-width="2" stroke-linecap="round" opacity="0.7"/>
</svg>
