<svg xmlns="http://www.w3.org/2000/svg" viewBox="0 0 200 200">
  <ellipse cx="100" cy="178" rx="36" ry="7" fill="#5A8A9A" opacity="0.30"/>
  <path d="M82 160 Q79 171 81 177 Q83 181 88 180 Q93 179 92 170 Q91 162 86 160 Z" fill="#7BA8B8" stroke="#2D5566" stroke-width="1.5"/>
  <path d="M118 160 Q121 171 119 177 Q117 181 112 180 Q107 179 108 170 Q109 162 114 160 Z" fill="#7BA8B8" stroke="#2D5566" stroke-width="1.5"/>
  <path d="M41 112 Q30 108 27 120 Q24 131 36 133 Q47 134 49 122 Z" fill="#7BA8B8" stroke="#2D5566" stroke-width="1.5"/>
  <path d="M159 112 Q170 108 173 120 Q176 131 164 133 Q153 134 151 122 Z" fill="#7BA8B8" stroke="#2D5566" stroke-width="1.5"/>
  <ellipse cx="100" cy="108" rx="62" ry="58" fill="#7BA8B8" opacity="0.92"/>
  <ellipse cx="108" cy="118" rx="46" ry="42" fill="#5A8A9A" opacity="0.30"/>
  <ellipse cx="100" cy="108" rx="62" ry="58" fill="none" stroke="#2D5566" stroke-width="1.5"/>
  <ellipse cx="72" cy="76" rx="20" ry="14" fill="white" opacity="0.32" transform="rotate(-45 72 76)"/>
  <ellipse cx="84" cy="106" rx="7" ry="8" fill="#1A3A4A"/>
  <circle cx="87" cy="104" r="2" fill="white"/>
  <path d="M76 100 Q84 95 92 100 L92 107 Q84 103 76 107 Z" fill="#7BA8B8"/>
  <ellipse cx="116" cy="106" rx="7" ry="8" fill="#1A3A4A"/>
  <circle cx="119" cy="104" r="2" fill="white"/>
  <path d="M108 100 Q116 95 124 100 L124 107 Q116 103 108 107 Z" fill="#7BA8B8"/>
  <path d="M90 120 Q100 122 110 120" fill="none" stroke="#1A3A4A" stroke-width="1.8" stroke-linecap="round" opacity="0.85"/>
  <path d="M128 56 L138 56 L128 66 L138 66" stroke="#6A98A8" stroke-width="2" fill="none" stroke-linecap="round" stroke-linejoin="round"/>
  <path d="M136 46 L144 46 L136 55 L144 55" stroke="#6A98A8" stroke-width="1.6" fill="none" stroke-linecap="round" stroke-linejoin="round"/>
  <path d="M142 38 L148 38 L142 46 L148 46" stroke="#6A98A8" stroke-width="1.2" fill="none" stroke-linecap="round" stroke-linejoin="round"/>
</svg>
