<svg xmlns="http://www.w3.org/2000/svg" viewBox="0 0 400 300">
  <defs>
    <linearGradient id="groundSky" x1="0" y1="0" x2="0" y2="1">
      <stop offset="0%" stop-color="#D4EAF0"/>
      <stop offset="60%" stop-color="#B8D8C8"/>
      <stop offset="100%" stop-color="#8CC4A4"/>
    </linearGradient>
  </defs>
  <rect width="400" height="300" fill="url(#groundSky)"/>
  <path d="M0 220 Q100 210 200 218 Q300 226 400 215 L400 245 Q300 256 200 248 Q100 240 0 250 Z" fill="#88BBCC" opacity="0.65"/>
  <path d="M0 228 Q100 218 200 226 Q300 234 400 223 L400 233 Q300 244 200 236 Q100 228 0 238 Z" fill="#99CCDD" opacity="0.40"/>
  <ellipse cx="90" cy="234" rx="18" ry="8" fill="#8AB4A8" opacity="0.80"/>
  <ellipse cx="160" cy="240" rx="12" ry="6" fill="#94B8AC" opacity="0.80"/>
  <ellipse cx="260" cy="236" rx="20" ry="9" fill="#8AB4A8" opacity="0.80"/>
  <ellipse cx="330" cy="242" rx="14" ry="6" fill="#90B8A8" opacity="0.80"/>
  <ellipse cx="200" cy="244" rx="10" ry="5" fill="#98BCAC" opacity="0.70"/>
  <ellipse cx="200" cy="295" rx="220" ry="24" fill="#88AA88"/>
  <rect x="0" y="278" width="400" height="22" fill="#88AA88"/>
  <circle cx="70" cy="262" r="5" fill="#80A898" opacity="0.7"/>
  <circle cx="310" cy="265" r="4" fill="#80A898" opacity="0.7"/>
  <circle cx="148" cy="260" r="3.5" fill="#88A898" opacity="0.6"/>
  <path d="M170 248 Q155 253 152 262 Q150 270 160 271 Q170 272 180 263 Q188 255 185 248 Z" fill="#7BA8B8" stroke="#2D5566" stroke-width="1.5"/>
  <path d="M230 248 Q245 253 248 262 Q250 270 240 271 Q230 272 220 263 Q212 255 215 248 Z" fill="#7BA8B8" stroke="#2D5566" stroke-width="1.5"/>
  <path d="M155 215 Q144 215 143 225 Q142 234 152 234 Q162 234 163 225 Z" fill="#7BA8B8" stroke="#2D5566" stroke-width="1.5"/>
  <path d="M245 215 Q256 215 257 225 Q258 234 248 234 Q238 234 237 225 Z" fill="#7BA8B8" stroke="#2D5566" stroke-width="1.5"/>
  <ellipse cx="200" cy="202" rx="52" ry="49" fill="#7BA8B8"/>
  <ellipse cx="207" cy="211" rx="38" ry="35" fill="#5A8A9A" opacity="0.35"/>
  <ellipse cx="200" cy="202" rx="52" ry="49" fill="none" stroke="#2D5566" stroke-width="1.5"/>
  <ellipse cx="178" cy="178" rx="17" ry="12" fill="white" opacity="0.35" transform="rotate(-45 178 178)"/>
  <path d="M185 197 Q192 192 199 197" fill="none" stroke="#1A3A4A" stroke-width="2.2" stroke-linecap="round"/>
  <path d="M201 197 Q208 192 215 197" fill="none" stroke="#1A3A4A" stroke-width="2.2" stroke-linecap="round"/>
  <path d="M188 212 Q200 221 212 212" fill="none" stroke="#1A3A4A" stroke-width="2" stroke-linecap="round"/>
  <circle cx="200" cy="275" r="4" fill="#5A8A9A" opacity="0.45"/>
  <circle cx="188" cy="275" r="2.5" fill="#5A8A9A" opacity="0.30"/>
  <circle cx="212" cy="275" r="2.5" fill="#5A8A9A" opacity="0.30"/>
</svg>
