<svg xmlns="http://www.w3.org/2000/svg" viewBox="0 0 200 200">
  <ellipse cx="100" cy="178" rx="36" ry="7" fill="#5A8A9A" opacity="0.30"/>
  <path d="M82 160 Q79 171 81 177 Q83 181 88 180 Q93 179 92 170 Q91 162 86 160 Z" fill="#7BA8B8" stroke="#2D5566" stroke-width="1.5"/>
  <path d="M118 160 Q121 171 119 177 Q117 181 112 180 Q107 179 108 170 Q109 162 114 160 Z" fill="#7BA8B8" stroke="#2D5566" stroke-width="1.5"/>
  <path d="M41 112 Q30 108 27 120 Q24 131 36 133 Q47 134 49 122 Z" fill="#7BA8B8" stroke="#2D5566" stroke-width="1.5"/>
  <path d="M159 112 Q170 108 173 120 Q176 131 164 133 Q153 134 151 122 Z" fill="#7BA8B8" stroke="#2D5566" stroke-width="1.5"/>
  <ellipse cx="100" cy="108" rx="62" ry="58" fill="#7BA8B8"/>
  <ellipse cx="108" cy="118" rx="46" ry="42" fill="#5A8A9A" opacity="0.35"/>
  <ellipse cx="100" cy="108" rx="62" ry="58" fill="none" stroke="#2D5566" stroke-width="1.5"/>
  <ellipse cx="72" cy="76" rx="20" ry="14" fill="white" opacity="0.35" transform="rotate(-45 72 76)"/>
  <path d="M77 104 Q84 98 91 104" fill="none" stroke="#1A3A4A" stroke-width="2.5" stroke-linecap="round"/>
  <path d="M109 104 Q116 98 123 104" fill="none" stroke="#1A3A4A" stroke-width="2.5" stroke-linecap="round"/>
  <path d="M86 119 Q100 132 114 119" fill="none" stroke="#1A3A4A" stroke-width="2.3" stroke-linecap="round"/>
  <ellipse cx="70" cy="115" rx="10" ry="5.5" fill="#F4A0A0" opacity="0.25"/>
  <ellipse cx="130" cy="115" rx="10" ry="5.5" fill="#F4A0A0" opacity="0.25"/>
  <path d="M134 66 L135.2 70 L139.5 70 L136.2 72.5 L137.5 76.5 L134 74.2 L130.5 76.5 L131.8 72.5 L128.5 70 L132.8 70 Z" fill="#FFD166" opacity="0.85"/>
  <path d="M112 105 Q118 102 122 106" fill="none" stroke="#A8D0E0" stroke-width="1.5" stroke-linecap="round" opacity="0.55"/>
  <path d="M114 112 Q121 109 125 113" fill="none" stroke="#A8D0E0" stroke-width="1.2" stroke-linecap="round" opacity="0.40"/>
</svg>
